<?xml version="1.0" encoding="utf-8" standalone="no"?>
<!DOCTYPE svg PUBLIC "-//W3C//DTD SVG 1.1//EN"
  "http://www.w3.org/Graphics/SVG/1.1/DTD/svg11.dtd">
<svg xmlns:xlink="http://www.w3.org/1999/xlink" width="856.8pt" height="568.8pt" viewBox="0 0 856.8 568.8" xmlns="http://www.w3.org/2000/svg" version="1.1">
 <metadata>
  <rdf:RDF xmlns:dc="http://purl.org/dc/elements/1.1/" xmlns:cc="http://creativecommons.org/ns#" xmlns:rdf="http://www.w3.org/1999/02/22-rdf-syntax-ns#">
   <cc:Work>
    <dc:type rdf:resource="http://purl.org/dc/dcmitype/StillImage"/>
    <dc:date>2026-04-18T17:53:51.821750</dc:date>
    <dc:format>image/svg+xml</dc:format>
    <dc:creator>
     <cc:Agent>
      <dc:title>Matplotlib v3.10.8, https://matplotlib.org/</dc:title>
     </cc:Agent>
    </dc:creator>
   </cc:Work>
  </rdf:RDF>
 </metadata>
 <defs>
  <style type="text/css">*{stroke-linejoin: round; stroke-linecap: butt}</style>
 </defs>
 <g id="figure_1">
  <g id="patch_1">
   <path d="M 0 568.8
L 856.8 568.8
L 856.8 0
L 0 0
z
" style="fill: #ffffff"/>
  </g>
  <g id="axes_1">
   <g id="patch_2">
    <path d="M 326.61 71.649
L 530.19 71.649
Q 535.806 71.649 535.806 66.105
L 535.806 34.92
Q 535.806 29.376 530.19 29.376
L 326.61 29.376
Q 320.994 29.376 320.994 34.92
L 320.994 66.105
Q 320.994 71.649 326.61 71.649
z
" clip-path="url(#pb2aa3a8ecf)" style="fill: #eef2ff; stroke: #4f46e5; stroke-width: 1.5; stroke-linejoin: miter"/>
   </g>
   <g id="patch_3">
    <path d="M 326.61 137.484
L 530.19 137.484
Q 535.806 137.484 535.806 131.94
L 535.806 100.755
Q 535.806 95.211 530.19 95.211
L 326.61 95.211
Q 320.994 95.211 320.994 100.755
L 320.994 131.94
Q 320.994 137.484 326.61 137.484
z
" clip-path="url(#pb2aa3a8ecf)" style="fill: #eef2ff; stroke: #4f46e5; stroke-width: 1.5; stroke-linejoin: miter"/>
   </g>
   <g id="patch_4">
    <path d="M 312.57 206.784
L 544.23 206.784
Q 549.846 206.784 549.846 201.24
L 549.846 166.59
Q 549.846 161.046 544.23 161.046
L 312.57 161.046
Q 306.954 161.046 306.954 166.59
L 306.954 201.24
Q 306.954 206.784 312.57 206.784
z
" clip-path="url(#pb2aa3a8ecf)" style="fill: #eef2ff; stroke: #4f46e5; stroke-width: 1.5; stroke-linejoin: miter"/>
   </g>
   <g id="patch_5">
    <path d="M 66.87 276.084
L 221.31 276.084
Q 226.926 276.084 226.926 270.54
L 226.926 239.355
Q 226.926 233.811 221.31 233.811
L 66.87 233.811
Q 61.254 233.811 61.254 239.355
L 61.254 270.54
Q 61.254 276.084 66.87 276.084
z
" clip-path="url(#pb2aa3a8ecf)" style="fill: #eef2ff; stroke: #4f46e5; stroke-width: 1.5; stroke-linejoin: miter"/>
   </g>
   <g id="patch_6">
    <path d="M 270.45 276.084
L 424.89 276.084
Q 430.506 276.084 430.506 270.54
L 430.506 239.355
Q 430.506 233.811 424.89 233.811
L 270.45 233.811
Q 264.834 233.811 264.834 239.355
L 264.834 270.54
Q 264.834 276.084 270.45 276.084
z
" clip-path="url(#pb2aa3a8ecf)" style="fill: #eef2ff; stroke: #4f46e5; stroke-width: 1.5; stroke-linejoin: miter"/>
   </g>
   <g id="patch_7">
    <path d="M 452.97 276.084
L 607.41 276.084
Q 613.026 276.084 613.026 270.54
L 613.026 239.355
Q 613.026 233.811 607.41 233.811
L 452.97 233.811
Q 447.354 233.811 447.354 239.355
L 447.354 270.54
Q 447.354 276.084 452.97 276.084
z
" clip-path="url(#pb2aa3a8ecf)" style="fill: #eef2ff; stroke: #4f46e5; stroke-width: 1.5; stroke-linejoin: miter"/>
   </g>
   <g id="patch_8">
    <path d="M 452.97 345.384
L 607.41 345.384
Q 613.026 345.384 613.026 339.84
L 613.026 308.655
Q 613.026 303.111 607.41 303.111
L 452.97 303.111
Q 447.354 303.111 447.354 308.655
L 447.354 339.84
Q 447.354 345.384 452.97 345.384
z
" clip-path="url(#pb2aa3a8ecf)" style="fill: #eef2ff; stroke: #4f46e5; stroke-width: 1.5; stroke-linejoin: miter"/>
   </g>
   <g id="patch_9">
    <path d="M 414.36 428.544
L 646.02 428.544
Q 651.636 428.544 651.636 423
L 651.636 384.885
Q 651.636 379.341 646.02 379.341
L 414.36 379.341
Q 408.744 379.341 408.744 384.885
L 408.744 423
Q 408.744 428.544 414.36 428.544
z
" clip-path="url(#pb2aa3a8ecf)" style="fill: #eef2ff; stroke: #4f46e5; stroke-width: 1.5; stroke-linejoin: miter"/>
   </g>
   <g id="patch_10">
    <path d="M 80.91 518.634
L 242.37 518.634
Q 247.986 518.634 247.986 513.09
L 247.986 478.44
Q 247.986 472.896 242.37 472.896
L 80.91 472.896
Q 75.294 472.896 75.294 478.44
L 75.294 513.09
Q 75.294 518.634 80.91 518.634
z
" clip-path="url(#pb2aa3a8ecf)" style="fill: #eef2ff; stroke: #4f46e5; stroke-width: 1.5; stroke-linejoin: miter"/>
   </g>
   <g id="patch_11">
    <path d="M 330.12 518.634
L 526.68 518.634
Q 532.296 518.634 532.296 513.09
L 532.296 478.44
Q 532.296 472.896 526.68 472.896
L 330.12 472.896
Q 324.504 472.896 324.504 478.44
L 324.504 513.09
Q 324.504 518.634 330.12 518.634
z
" clip-path="url(#pb2aa3a8ecf)" style="fill: #eef2ff; stroke: #4f46e5; stroke-width: 1.5; stroke-linejoin: miter"/>
   </g>
   <g id="patch_12">
    <path d="M 614.43 518.634
L 782.91 518.634
Q 788.526 518.634 788.526 513.09
L 788.526 478.44
Q 788.526 472.896 782.91 472.896
L 614.43 472.896
Q 608.814 472.896 608.814 478.44
L 608.814 513.09
Q 608.814 518.634 614.43 518.634
z
" clip-path="url(#pb2aa3a8ecf)" style="fill: #eef2ff; stroke: #4f46e5; stroke-width: 1.5; stroke-linejoin: miter"/>
   </g>
   <g id="patch_13">
    <path d="M 649.53 276.084
L 818.01 276.084
Q 823.626 276.084 823.626 270.54
L 823.626 228.96
Q 823.626 223.416 818.01 223.416
L 649.53 223.416
Q 643.914 223.416 643.914 228.96
L 643.914 270.54
Q 643.914 276.084 649.53 276.084
z
" clip-path="url(#pb2aa3a8ecf)" style="fill: #fef9c3; stroke: #ca8a04; stroke-width: 1.5; stroke-linejoin: miter"/>
   </g>
   <g id="patch_14">
    <path d="M 649.53 352.314
L 818.01 352.314
Q 823.626 352.314 823.626 346.77
L 823.626 312.12
Q 823.626 306.576 818.01 306.576
L 649.53 306.576
Q 643.914 306.576 643.914 312.12
L 643.914 346.77
Q 643.914 352.314 649.53 352.314
z
" clip-path="url(#pb2aa3a8ecf)" style="fill: #fef9c3; stroke: #ca8a04; stroke-width: 1.5; stroke-linejoin: miter"/>
   </g>
   <g id="patch_15">
    <path d="M 428.4 71.569819
Q 428.4 83.429925 428.4 93.724782
" clip-path="url(#pb2aa3a8ecf)" style="fill: none; stroke: #334155; stroke-width: 1.4; stroke-linecap: round"/>
    <path d="M 431.2 88.124782
L 428.4 93.724782
L 425.6 88.124782
z
" clip-path="url(#pb2aa3a8ecf)" style="fill: #334155; stroke: #334155; stroke-width: 1.4; stroke-linecap: round"/>
   </g>
   <g id="patch_16">
    <path d="M 428.4 137.404819
Q 428.4 149.264925 428.4 159.559782
" clip-path="url(#pb2aa3a8ecf)" style="fill: none; stroke: #334155; stroke-width: 1.4; stroke-linecap: round"/>
    <path d="M 431.2 153.959782
L 428.4 159.559782
L 425.6 153.959782
z
" clip-path="url(#pb2aa3a8ecf)" style="fill: #334155; stroke: #334155; stroke-width: 1.4; stroke-linecap: round"/>
   </g>
   <g id="patch_17">
    <path d="M 370.262197 204.979563
Q 259.921486 220.297294 151.131155 235.399798
" clip-path="url(#pb2aa3a8ecf)" style="fill: none; stroke: #334155; stroke-width: 1.4; stroke-linecap: round"/>
    <path d="M 157.062972 237.403182
L 151.131155 235.399798
L 156.292952 231.856375
z
" clip-path="url(#pb2aa3a8ecf)" style="fill: #334155; stroke: #334155; stroke-width: 1.4; stroke-linecap: round"/>
   </g>
   <g id="patch_18">
    <path d="M 419.539949 205.483483
Q 384.523966 220.297937 350.949524 234.502509
" clip-path="url(#pb2aa3a8ecf)" style="fill: none; stroke: #334155; stroke-width: 1.4; stroke-linecap: round"/>
    <path d="M 357.197933 234.899233
L 350.949524 234.502509
L 355.015949 229.741817
z
" clip-path="url(#pb2aa3a8ecf)" style="fill: #334155; stroke: #334155; stroke-width: 1.4; stroke-linecap: round"/>
   </g>
   <g id="patch_19">
    <path d="M 482.738588 205.776604
Q 505.62005 220.297532 527.179928 233.979762
" clip-path="url(#pb2aa3a8ecf)" style="fill: none; stroke: #334155; stroke-width: 1.4; stroke-linecap: round"/>
    <path d="M 523.951992 228.615023
L 527.179928 233.979762
L 520.951375 233.343268
z
" clip-path="url(#pb2aa3a8ecf)" style="fill: #334155; stroke: #334155; stroke-width: 1.4; stroke-linecap: round"/>
   </g>
   <g id="patch_20">
    <path d="M 530.19 276.00355
Q 530.19 289.59741 530.19 301.626022
" clip-path="url(#pb2aa3a8ecf)" style="fill: none; stroke: #334155; stroke-width: 1.4; stroke-linecap: round"/>
    <path d="M 532.99 296.026022
L 530.19 301.626022
L 527.39 296.026022
z
" clip-path="url(#pb2aa3a8ecf)" style="fill: #334155; stroke: #334155; stroke-width: 1.4; stroke-linecap: round"/>
   </g>
   <g id="patch_21">
    <path d="M 530.19 345.301013
Q 530.19 362.361855 530.19 377.85745
" clip-path="url(#pb2aa3a8ecf)" style="fill: none; stroke: #334155; stroke-width: 1.4; stroke-linecap: round"/>
    <path d="M 532.99 372.25745
L 530.19 377.85745
L 527.39 372.25745
z
" clip-path="url(#pb2aa3a8ecf)" style="fill: #334155; stroke: #334155; stroke-width: 1.4; stroke-linecap: round"/>
   </g>
   <g id="patch_22">
    <path d="M 454.504982 426.789949
Q 309.057854 450.720353 165.155208 474.396643
" clip-path="url(#pb2aa3a8ecf)" style="fill: none; stroke: #334155; stroke-width: 1.4; stroke-linecap: round"/>
    <path d="M 171.135489 476.250353
L 165.155208 474.396643
L 170.226344 470.724644
z
" clip-path="url(#pb2aa3a8ecf)" style="fill: #334155; stroke: #334155; stroke-width: 1.4; stroke-linecap: round"/>
   </g>
   <g id="patch_23">
    <path d="M 528.385191 427.325117
Q 479.294256 450.720354 431.616314 473.442203
" clip-path="url(#pb2aa3a8ecf)" style="fill: none; stroke: #334155; stroke-width: 1.4; stroke-linecap: round"/>
    <path d="M 437.876184 473.560651
L 431.616314 473.442203
L 435.466994 468.505376
z
" clip-path="url(#pb2aa3a8ecf)" style="fill: #334155; stroke: #334155; stroke-width: 1.4; stroke-linecap: round"/>
   </g>
   <g id="patch_24">
    <path d="M 609.178497 427.405059
Q 653.040749 450.720398 695.520883 473.301061
" clip-path="url(#pb2aa3a8ecf)" style="fill: none; stroke: #334155; stroke-width: 1.4; stroke-linecap: round"/>
    <path d="M 691.890296 468.200195
L 695.520883 473.301061
L 689.261838 473.145012
z
" clip-path="url(#pb2aa3a8ecf)" style="fill: #334155; stroke: #334155; stroke-width: 1.4; stroke-linecap: round"/>
   </g>
   <g id="patch_25">
    <path d="M 549.729853 204.927378
Q 640.757217 215.100248 730.229018 225.099273
" clip-path="url(#pb2aa3a8ecf)" style="fill: none; stroke-dasharray: 1.4,2.31; stroke-dashoffset: 0; stroke: #a16207; stroke-width: 1.4; stroke-linecap: round"/>
    <path d="M 724.974645 221.694634
L 730.229018 225.099273
L 724.352683 227.259988
z
" clip-path="url(#pb2aa3a8ecf)" style="fill: #a16207; stroke-dasharray: 1.4,2.31; stroke-dashoffset: 0; stroke: #a16207; stroke-width: 1.4; stroke-linecap: round"/>
   </g>
   <g id="patch_26">
    <path d="M 733.77 276.005665
Q 733.77 291.331961 733.77 305.09301
" clip-path="url(#pb2aa3a8ecf)" style="fill: none; stroke-dasharray: 1.4,2.31; stroke-dashoffset: 0; stroke: #a16207; stroke-width: 1.4; stroke-linecap: round"/>
    <path d="M 736.57 299.49301
L 733.77 305.09301
L 730.97 299.49301
z
" clip-path="url(#pb2aa3a8ecf)" style="fill: #a16207; stroke-dasharray: 1.4,2.31; stroke-dashoffset: 0; stroke: #a16207; stroke-width: 1.4; stroke-linecap: round"/>
   </g>
   <g id="text_1">
    <!-- Input Image -->
    <g transform="translate(398.203906 53.271875) scale(0.1 -0.1)">
     <defs>
      <path id="DejaVuSans-49" d="M 628 4666
L 1259 4666
L 1259 0
L 628 0
L 628 4666
z
" transform="scale(0.015625)"/>
      <path id="DejaVuSans-6e" d="M 3513 2113
L 3513 0
L 2938 0
L 2938 2094
Q 2938 2591 2744 2837
Q 2550 3084 2163 3084
Q 1697 3084 1428 2787
Q 1159 2491 1159 1978
L 1159 0
L 581 0
L 581 3500
L 1159 3500
L 1159 2956
Q 1366 3272 1645 3428
Q 1925 3584 2291 3584
Q 2894 3584 3203 3211
Q 3513 2838 3513 2113
z
" transform="scale(0.015625)"/>
      <path id="DejaVuSans-70" d="M 1159 525
L 1159 -1331
L 581 -1331
L 581 3500
L 1159 3500
L 1159 2969
Q 1341 3281 1617 3432
Q 1894 3584 2278 3584
Q 2916 3584 3314 3078
Q 3713 2572 3713 1747
Q 3713 922 3314 415
Q 2916 -91 2278 -91
Q 1894 -91 1617 61
Q 1341 213 1159 525
z
M 3116 1747
Q 3116 2381 2855 2742
Q 2594 3103 2138 3103
Q 1681 3103 1420 2742
Q 1159 2381 1159 1747
Q 1159 1113 1420 752
Q 1681 391 2138 391
Q 2594 391 2855 752
Q 3116 1113 3116 1747
z
" transform="scale(0.015625)"/>
      <path id="DejaVuSans-75" d="M 544 1381
L 544 3500
L 1119 3500
L 1119 1403
Q 1119 906 1312 657
Q 1506 409 1894 409
Q 2359 409 2629 706
Q 2900 1003 2900 1516
L 2900 3500
L 3475 3500
L 3475 0
L 2900 0
L 2900 538
Q 2691 219 2414 64
Q 2138 -91 1772 -91
Q 1169 -91 856 284
Q 544 659 544 1381
z
M 1991 3584
L 1991 3584
z
" transform="scale(0.015625)"/>
      <path id="DejaVuSans-74" d="M 1172 4494
L 1172 3500
L 2356 3500
L 2356 3053
L 1172 3053
L 1172 1153
Q 1172 725 1289 603
Q 1406 481 1766 481
L 2356 481
L 2356 0
L 1766 0
Q 1100 0 847 248
Q 594 497 594 1153
L 594 3053
L 172 3053
L 172 3500
L 594 3500
L 594 4494
L 1172 4494
z
" transform="scale(0.015625)"/>
      <path id="DejaVuSans-20" transform="scale(0.015625)"/>
      <path id="DejaVuSans-6d" d="M 3328 2828
Q 3544 3216 3844 3400
Q 4144 3584 4550 3584
Q 5097 3584 5394 3201
Q 5691 2819 5691 2113
L 5691 0
L 5113 0
L 5113 2094
Q 5113 2597 4934 2840
Q 4756 3084 4391 3084
Q 3944 3084 3684 2787
Q 3425 2491 3425 1978
L 3425 0
L 2847 0
L 2847 2094
Q 2847 2600 2669 2842
Q 2491 3084 2119 3084
Q 1678 3084 1418 2786
Q 1159 2488 1159 1978
L 1159 0
L 581 0
L 581 3500
L 1159 3500
L 1159 2956
Q 1356 3278 1631 3431
Q 1906 3584 2284 3584
Q 2666 3584 2933 3390
Q 3200 3197 3328 2828
z
" transform="scale(0.015625)"/>
      <path id="DejaVuSans-61" d="M 2194 1759
Q 1497 1759 1228 1600
Q 959 1441 959 1056
Q 959 750 1161 570
Q 1363 391 1709 391
Q 2188 391 2477 730
Q 2766 1069 2766 1631
L 2766 1759
L 2194 1759
z
M 3341 1997
L 3341 0
L 2766 0
L 2766 531
Q 2569 213 2275 61
Q 1981 -91 1556 -91
Q 1019 -91 701 211
Q 384 513 384 1019
Q 384 1609 779 1909
Q 1175 2209 1959 2209
L 2766 2209
L 2766 2266
Q 2766 2663 2505 2880
Q 2244 3097 1772 3097
Q 1472 3097 1187 3025
Q 903 2953 641 2809
L 641 3341
Q 956 3463 1253 3523
Q 1550 3584 1831 3584
Q 2591 3584 2966 3190
Q 3341 2797 3341 1997
z
" transform="scale(0.015625)"/>
      <path id="DejaVuSans-67" d="M 2906 1791
Q 2906 2416 2648 2759
Q 2391 3103 1925 3103
Q 1463 3103 1205 2759
Q 947 2416 947 1791
Q 947 1169 1205 825
Q 1463 481 1925 481
Q 2391 481 2648 825
Q 2906 1169 2906 1791
z
M 3481 434
Q 3481 -459 3084 -895
Q 2688 -1331 1869 -1331
Q 1566 -1331 1297 -1286
Q 1028 -1241 775 -1147
L 775 -588
Q 1028 -725 1275 -790
Q 1522 -856 1778 -856
Q 2344 -856 2625 -561
Q 2906 -266 2906 331
L 2906 616
Q 2728 306 2450 153
Q 2172 0 1784 0
Q 1141 0 747 490
Q 353 981 353 1791
Q 353 2603 747 3093
Q 1141 3584 1784 3584
Q 2172 3584 2450 3431
Q 2728 3278 2906 2969
L 2906 3500
L 3481 3500
L 3481 434
z
" transform="scale(0.015625)"/>
      <path id="DejaVuSans-65" d="M 3597 1894
L 3597 1613
L 953 1613
Q 991 1019 1311 708
Q 1631 397 2203 397
Q 2534 397 2845 478
Q 3156 559 3463 722
L 3463 178
Q 3153 47 2828 -22
Q 2503 -91 2169 -91
Q 1331 -91 842 396
Q 353 884 353 1716
Q 353 2575 817 3079
Q 1281 3584 2069 3584
Q 2775 3584 3186 3129
Q 3597 2675 3597 1894
z
M 3022 2063
Q 3016 2534 2758 2815
Q 2500 3097 2075 3097
Q 1594 3097 1305 2825
Q 1016 2553 972 2059
L 3022 2063
z
" transform="scale(0.015625)"/>
     </defs>
     <use xlink:href="#DejaVuSans-49"/>
     <use xlink:href="#DejaVuSans-6e" transform="translate(29.492188 0)"/>
     <use xlink:href="#DejaVuSans-70" transform="translate(92.871094 0)"/>
     <use xlink:href="#DejaVuSans-75" transform="translate(156.347656 0)"/>
     <use xlink:href="#DejaVuSans-74" transform="translate(219.726562 0)"/>
     <use xlink:href="#DejaVuSans-20" transform="translate(258.935547 0)"/>
     <use xlink:href="#DejaVuSans-49" transform="translate(290.722656 0)"/>
     <use xlink:href="#DejaVuSans-6d" transform="translate(320.214844 0)"/>
     <use xlink:href="#DejaVuSans-61" transform="translate(417.626953 0)"/>
     <use xlink:href="#DejaVuSans-67" transform="translate(478.90625 0)"/>
     <use xlink:href="#DejaVuSans-65" transform="translate(542.382812 0)"/>
    </g>
   </g>
   <g id="text_2">
    <!-- Resize / Normalize -->
    <g transform="translate(382.335937 119.106875) scale(0.1 -0.1)">
     <defs>
      <path id="DejaVuSans-52" d="M 2841 2188
Q 3044 2119 3236 1894
Q 3428 1669 3622 1275
L 4263 0
L 3584 0
L 2988 1197
Q 2756 1666 2539 1819
Q 2322 1972 1947 1972
L 1259 1972
L 1259 0
L 628 0
L 628 4666
L 2053 4666
Q 2853 4666 3247 4331
Q 3641 3997 3641 3322
Q 3641 2881 3436 2590
Q 3231 2300 2841 2188
z
M 1259 4147
L 1259 2491
L 2053 2491
Q 2509 2491 2742 2702
Q 2975 2913 2975 3322
Q 2975 3731 2742 3939
Q 2509 4147 2053 4147
L 1259 4147
z
" transform="scale(0.015625)"/>
      <path id="DejaVuSans-73" d="M 2834 3397
L 2834 2853
Q 2591 2978 2328 3040
Q 2066 3103 1784 3103
Q 1356 3103 1142 2972
Q 928 2841 928 2578
Q 928 2378 1081 2264
Q 1234 2150 1697 2047
L 1894 2003
Q 2506 1872 2764 1633
Q 3022 1394 3022 966
Q 3022 478 2636 193
Q 2250 -91 1575 -91
Q 1294 -91 989 -36
Q 684 19 347 128
L 347 722
Q 666 556 975 473
Q 1284 391 1588 391
Q 1994 391 2212 530
Q 2431 669 2431 922
Q 2431 1156 2273 1281
Q 2116 1406 1581 1522
L 1381 1569
Q 847 1681 609 1914
Q 372 2147 372 2553
Q 372 3047 722 3315
Q 1072 3584 1716 3584
Q 2034 3584 2315 3537
Q 2597 3491 2834 3397
z
" transform="scale(0.015625)"/>
      <path id="DejaVuSans-69" d="M 603 3500
L 1178 3500
L 1178 0
L 603 0
L 603 3500
z
M 603 4863
L 1178 4863
L 1178 4134
L 603 4134
L 603 4863
z
" transform="scale(0.015625)"/>
      <path id="DejaVuSans-7a" d="M 353 3500
L 3084 3500
L 3084 2975
L 922 459
L 3084 459
L 3084 0
L 275 0
L 275 525
L 2438 3041
L 353 3041
L 353 3500
z
" transform="scale(0.015625)"/>
      <path id="DejaVuSans-2f" d="M 1625 4666
L 2156 4666
L 531 -594
L 0 -594
L 1625 4666
z
" transform="scale(0.015625)"/>
      <path id="DejaVuSans-4e" d="M 628 4666
L 1478 4666
L 3547 763
L 3547 4666
L 4159 4666
L 4159 0
L 3309 0
L 1241 3903
L 1241 0
L 628 0
L 628 4666
z
" transform="scale(0.015625)"/>
      <path id="DejaVuSans-6f" d="M 1959 3097
Q 1497 3097 1228 2736
Q 959 2375 959 1747
Q 959 1119 1226 758
Q 1494 397 1959 397
Q 2419 397 2687 759
Q 2956 1122 2956 1747
Q 2956 2369 2687 2733
Q 2419 3097 1959 3097
z
M 1959 3584
Q 2709 3584 3137 3096
Q 3566 2609 3566 1747
Q 3566 888 3137 398
Q 2709 -91 1959 -91
Q 1206 -91 779 398
Q 353 888 353 1747
Q 353 2609 779 3096
Q 1206 3584 1959 3584
z
" transform="scale(0.015625)"/>
      <path id="DejaVuSans-72" d="M 2631 2963
Q 2534 3019 2420 3045
Q 2306 3072 2169 3072
Q 1681 3072 1420 2755
Q 1159 2438 1159 1844
L 1159 0
L 581 0
L 581 3500
L 1159 3500
L 1159 2956
Q 1341 3275 1631 3429
Q 1922 3584 2338 3584
Q 2397 3584 2469 3576
Q 2541 3569 2628 3553
L 2631 2963
z
" transform="scale(0.015625)"/>
      <path id="DejaVuSans-6c" d="M 603 4863
L 1178 4863
L 1178 0
L 603 0
L 603 4863
z
" transform="scale(0.015625)"/>
     </defs>
     <use xlink:href="#DejaVuSans-52"/>
     <use xlink:href="#DejaVuSans-65" transform="translate(64.982422 0)"/>
     <use xlink:href="#DejaVuSans-73" transform="translate(126.505859 0)"/>
     <use xlink:href="#DejaVuSans-69" transform="translate(178.605469 0)"/>
     <use xlink:href="#DejaVuSans-7a" transform="translate(206.388672 0)"/>
     <use xlink:href="#DejaVuSans-65" transform="translate(258.878906 0)"/>
     <use xlink:href="#DejaVuSans-20" transform="translate(320.402344 0)"/>
     <use xlink:href="#DejaVuSans-2f" transform="translate(352.189453 0)"/>
     <use xlink:href="#DejaVuSans-20" transform="translate(385.880859 0)"/>
     <use xlink:href="#DejaVuSans-4e" transform="translate(417.667969 0)"/>
     <use xlink:href="#DejaVuSans-6f" transform="translate(492.472656 0)"/>
     <use xlink:href="#DejaVuSans-72" transform="translate(553.654297 0)"/>
     <use xlink:href="#DejaVuSans-6d" transform="translate(593.017578 0)"/>
     <use xlink:href="#DejaVuSans-61" transform="translate(690.429688 0)"/>
     <use xlink:href="#DejaVuSans-6c" transform="translate(751.708984 0)"/>
     <use xlink:href="#DejaVuSans-69" transform="translate(779.492188 0)"/>
     <use xlink:href="#DejaVuSans-7a" transform="translate(807.275391 0)"/>
     <use xlink:href="#DejaVuSans-65" transform="translate(859.765625 0)"/>
    </g>
   </g>
   <g id="text_3">
    <!-- V10 Forward -->
    <g transform="translate(396.923437 180.936406) scale(0.1 -0.1)">
     <defs>
      <path id="DejaVuSans-56" d="M 1831 0
L 50 4666
L 709 4666
L 2188 738
L 3669 4666
L 4325 4666
L 2547 0
L 1831 0
z
" transform="scale(0.015625)"/>
      <path id="DejaVuSans-31" d="M 794 531
L 1825 531
L 1825 4091
L 703 3866
L 703 4441
L 1819 4666
L 2450 4666
L 2450 531
L 3481 531
L 3481 0
L 794 0
L 794 531
z
" transform="scale(0.015625)"/>
      <path id="DejaVuSans-30" d="M 2034 4250
Q 1547 4250 1301 3770
Q 1056 3291 1056 2328
Q 1056 1369 1301 889
Q 1547 409 2034 409
Q 2525 409 2770 889
Q 3016 1369 3016 2328
Q 3016 3291 2770 3770
Q 2525 4250 2034 4250
z
M 2034 4750
Q 2819 4750 3233 4129
Q 3647 3509 3647 2328
Q 3647 1150 3233 529
Q 2819 -91 2034 -91
Q 1250 -91 836 529
Q 422 1150 422 2328
Q 422 3509 836 4129
Q 1250 4750 2034 4750
z
" transform="scale(0.015625)"/>
      <path id="DejaVuSans-46" d="M 628 4666
L 3309 4666
L 3309 4134
L 1259 4134
L 1259 2759
L 3109 2759
L 3109 2228
L 1259 2228
L 1259 0
L 628 0
L 628 4666
z
" transform="scale(0.015625)"/>
      <path id="DejaVuSans-77" d="M 269 3500
L 844 3500
L 1563 769
L 2278 3500
L 2956 3500
L 3675 769
L 4391 3500
L 4966 3500
L 4050 0
L 3372 0
L 2619 2869
L 1863 0
L 1184 0
L 269 3500
z
" transform="scale(0.015625)"/>
      <path id="DejaVuSans-64" d="M 2906 2969
L 2906 4863
L 3481 4863
L 3481 0
L 2906 0
L 2906 525
Q 2725 213 2448 61
Q 2172 -91 1784 -91
Q 1150 -91 751 415
Q 353 922 353 1747
Q 353 2572 751 3078
Q 1150 3584 1784 3584
Q 2172 3584 2448 3432
Q 2725 3281 2906 2969
z
M 947 1747
Q 947 1113 1208 752
Q 1469 391 1925 391
Q 2381 391 2643 752
Q 2906 1113 2906 1747
Q 2906 2381 2643 2742
Q 2381 3103 1925 3103
Q 1469 3103 1208 2742
Q 947 2381 947 1747
z
" transform="scale(0.015625)"/>
     </defs>
     <use xlink:href="#DejaVuSans-56"/>
     <use xlink:href="#DejaVuSans-31" transform="translate(68.408203 0)"/>
     <use xlink:href="#DejaVuSans-30" transform="translate(132.03125 0)"/>
     <use xlink:href="#DejaVuSans-20" transform="translate(195.654297 0)"/>
     <use xlink:href="#DejaVuSans-46" transform="translate(227.441406 0)"/>
     <use xlink:href="#DejaVuSans-6f" transform="translate(281.335938 0)"/>
     <use xlink:href="#DejaVuSans-72" transform="translate(342.517578 0)"/>
     <use xlink:href="#DejaVuSans-77" transform="translate(383.630859 0)"/>
     <use xlink:href="#DejaVuSans-61" transform="translate(465.417969 0)"/>
     <use xlink:href="#DejaVuSans-72" transform="translate(526.697266 0)"/>
     <use xlink:href="#DejaVuSans-64" transform="translate(566.060547 0)"/>
    </g>
    <!-- (default base_only) -->
    <g transform="translate(380.320312 192.134219) scale(0.1 -0.1)">
     <defs>
      <path id="DejaVuSans-28" d="M 1984 4856
Q 1566 4138 1362 3434
Q 1159 2731 1159 2009
Q 1159 1288 1364 580
Q 1569 -128 1984 -844
L 1484 -844
Q 1016 -109 783 600
Q 550 1309 550 2009
Q 550 2706 781 3412
Q 1013 4119 1484 4856
L 1984 4856
z
" transform="scale(0.015625)"/>
      <path id="DejaVuSans-66" d="M 2375 4863
L 2375 4384
L 1825 4384
Q 1516 4384 1395 4259
Q 1275 4134 1275 3809
L 1275 3500
L 2222 3500
L 2222 3053
L 1275 3053
L 1275 0
L 697 0
L 697 3053
L 147 3053
L 147 3500
L 697 3500
L 697 3744
Q 697 4328 969 4595
Q 1241 4863 1831 4863
L 2375 4863
z
" transform="scale(0.015625)"/>
      <path id="DejaVuSans-62" d="M 3116 1747
Q 3116 2381 2855 2742
Q 2594 3103 2138 3103
Q 1681 3103 1420 2742
Q 1159 2381 1159 1747
Q 1159 1113 1420 752
Q 1681 391 2138 391
Q 2594 391 2855 752
Q 3116 1113 3116 1747
z
M 1159 2969
Q 1341 3281 1617 3432
Q 1894 3584 2278 3584
Q 2916 3584 3314 3078
Q 3713 2572 3713 1747
Q 3713 922 3314 415
Q 2916 -91 2278 -91
Q 1894 -91 1617 61
Q 1341 213 1159 525
L 1159 0
L 581 0
L 581 4863
L 1159 4863
L 1159 2969
z
" transform="scale(0.015625)"/>
      <path id="DejaVuSans-5f" d="M 3263 -1063
L 3263 -1509
L -63 -1509
L -63 -1063
L 3263 -1063
z
" transform="scale(0.015625)"/>
      <path id="DejaVuSans-79" d="M 2059 -325
Q 1816 -950 1584 -1140
Q 1353 -1331 966 -1331
L 506 -1331
L 506 -850
L 844 -850
Q 1081 -850 1212 -737
Q 1344 -625 1503 -206
L 1606 56
L 191 3500
L 800 3500
L 1894 763
L 2988 3500
L 3597 3500
L 2059 -325
z
" transform="scale(0.015625)"/>
      <path id="DejaVuSans-29" d="M 513 4856
L 1013 4856
Q 1481 4119 1714 3412
Q 1947 2706 1947 2009
Q 1947 1309 1714 600
Q 1481 -109 1013 -844
L 513 -844
Q 928 -128 1133 580
Q 1338 1288 1338 2009
Q 1338 2731 1133 3434
Q 928 4138 513 4856
z
" transform="scale(0.015625)"/>
     </defs>
     <use xlink:href="#DejaVuSans-28"/>
     <use xlink:href="#DejaVuSans-64" transform="translate(39.013672 0)"/>
     <use xlink:href="#DejaVuSans-65" transform="translate(102.490234 0)"/>
     <use xlink:href="#DejaVuSans-66" transform="translate(164.013672 0)"/>
     <use xlink:href="#DejaVuSans-61" transform="translate(199.21875 0)"/>
     <use xlink:href="#DejaVuSans-75" transform="translate(260.498047 0)"/>
     <use xlink:href="#DejaVuSans-6c" transform="translate(323.876953 0)"/>
     <use xlink:href="#DejaVuSans-74" transform="translate(351.660156 0)"/>
     <use xlink:href="#DejaVuSans-20" transform="translate(390.869141 0)"/>
     <use xlink:href="#DejaVuSans-62" transform="translate(422.65625 0)"/>
     <use xlink:href="#DejaVuSans-61" transform="translate(486.132812 0)"/>
     <use xlink:href="#DejaVuSans-73" transform="translate(547.412109 0)"/>
     <use xlink:href="#DejaVuSans-65" transform="translate(599.511719 0)"/>
     <use xlink:href="#DejaVuSans-5f" transform="translate(661.035156 0)"/>
     <use xlink:href="#DejaVuSans-6f" transform="translate(711.035156 0)"/>
     <use xlink:href="#DejaVuSans-6e" transform="translate(772.216797 0)"/>
     <use xlink:href="#DejaVuSans-6c" transform="translate(835.595703 0)"/>
     <use xlink:href="#DejaVuSans-79" transform="translate(863.378906 0)"/>
     <use xlink:href="#DejaVuSans-29" transform="translate(922.558594 0)"/>
    </g>
   </g>
   <g id="text_4">
    <!-- Semantic Score -->
    <g transform="translate(105.04625 257.706875) scale(0.1 -0.1)">
     <defs>
      <path id="DejaVuSans-53" d="M 3425 4513
L 3425 3897
Q 3066 4069 2747 4153
Q 2428 4238 2131 4238
Q 1616 4238 1336 4038
Q 1056 3838 1056 3469
Q 1056 3159 1242 3001
Q 1428 2844 1947 2747
L 2328 2669
Q 3034 2534 3370 2195
Q 3706 1856 3706 1288
Q 3706 609 3251 259
Q 2797 -91 1919 -91
Q 1588 -91 1214 -16
Q 841 59 441 206
L 441 856
Q 825 641 1194 531
Q 1563 422 1919 422
Q 2459 422 2753 634
Q 3047 847 3047 1241
Q 3047 1584 2836 1778
Q 2625 1972 2144 2069
L 1759 2144
Q 1053 2284 737 2584
Q 422 2884 422 3419
Q 422 4038 858 4394
Q 1294 4750 2059 4750
Q 2388 4750 2728 4690
Q 3069 4631 3425 4513
z
" transform="scale(0.015625)"/>
      <path id="DejaVuSans-63" d="M 3122 3366
L 3122 2828
Q 2878 2963 2633 3030
Q 2388 3097 2138 3097
Q 1578 3097 1268 2742
Q 959 2388 959 1747
Q 959 1106 1268 751
Q 1578 397 2138 397
Q 2388 397 2633 464
Q 2878 531 3122 666
L 3122 134
Q 2881 22 2623 -34
Q 2366 -91 2075 -91
Q 1284 -91 818 406
Q 353 903 353 1747
Q 353 2603 823 3093
Q 1294 3584 2113 3584
Q 2378 3584 2631 3529
Q 2884 3475 3122 3366
z
" transform="scale(0.015625)"/>
     </defs>
     <use xlink:href="#DejaVuSans-53"/>
     <use xlink:href="#DejaVuSans-65" transform="translate(63.476562 0)"/>
     <use xlink:href="#DejaVuSans-6d" transform="translate(125 0)"/>
     <use xlink:href="#DejaVuSans-61" transform="translate(222.412109 0)"/>
     <use xlink:href="#DejaVuSans-6e" transform="translate(283.691406 0)"/>
     <use xlink:href="#DejaVuSans-74" transform="translate(347.070312 0)"/>
     <use xlink:href="#DejaVuSans-69" transform="translate(386.279297 0)"/>
     <use xlink:href="#DejaVuSans-63" transform="translate(414.0625 0)"/>
     <use xlink:href="#DejaVuSans-20" transform="translate(469.042969 0)"/>
     <use xlink:href="#DejaVuSans-53" transform="translate(500.830078 0)"/>
     <use xlink:href="#DejaVuSans-63" transform="translate(564.306641 0)"/>
     <use xlink:href="#DejaVuSans-6f" transform="translate(619.287109 0)"/>
     <use xlink:href="#DejaVuSans-72" transform="translate(680.46875 0)"/>
     <use xlink:href="#DejaVuSans-65" transform="translate(719.332031 0)"/>
    </g>
   </g>
   <g id="text_5">
    <!-- Frequency Score -->
    <g transform="translate(306.248906 257.706875) scale(0.1 -0.1)">
     <defs>
      <path id="DejaVuSans-71" d="M 947 1747
Q 947 1113 1208 752
Q 1469 391 1925 391
Q 2381 391 2643 752
Q 2906 1113 2906 1747
Q 2906 2381 2643 2742
Q 2381 3103 1925 3103
Q 1469 3103 1208 2742
Q 947 2381 947 1747
z
M 2906 525
Q 2725 213 2448 61
Q 2172 -91 1784 -91
Q 1150 -91 751 415
Q 353 922 353 1747
Q 353 2572 751 3078
Q 1150 3584 1784 3584
Q 2172 3584 2448 3432
Q 2725 3281 2906 2969
L 2906 3500
L 3481 3500
L 3481 -1331
L 2906 -1331
L 2906 525
z
" transform="scale(0.015625)"/>
     </defs>
     <use xlink:href="#DejaVuSans-46"/>
     <use xlink:href="#DejaVuSans-72" transform="translate(50.269531 0)"/>
     <use xlink:href="#DejaVuSans-65" transform="translate(89.132812 0)"/>
     <use xlink:href="#DejaVuSans-71" transform="translate(150.65625 0)"/>
     <use xlink:href="#DejaVuSans-75" transform="translate(214.132812 0)"/>
     <use xlink:href="#DejaVuSans-65" transform="translate(277.511719 0)"/>
     <use xlink:href="#DejaVuSans-6e" transform="translate(339.035156 0)"/>
     <use xlink:href="#DejaVuSans-63" transform="translate(402.414062 0)"/>
     <use xlink:href="#DejaVuSans-79" transform="translate(457.394531 0)"/>
     <use xlink:href="#DejaVuSans-20" transform="translate(516.574219 0)"/>
     <use xlink:href="#DejaVuSans-53" transform="translate(548.361328 0)"/>
     <use xlink:href="#DejaVuSans-63" transform="translate(611.837891 0)"/>
     <use xlink:href="#DejaVuSans-6f" transform="translate(666.818359 0)"/>
     <use xlink:href="#DejaVuSans-72" transform="translate(728 0)"/>
     <use xlink:href="#DejaVuSans-65" transform="translate(766.863281 0)"/>
    </g>
   </g>
   <g id="text_6">
    <!-- Base Logit -->
    <g transform="translate(504.143906 257.706875) scale(0.1 -0.1)">
     <defs>
      <path id="DejaVuSans-42" d="M 1259 2228
L 1259 519
L 2272 519
Q 2781 519 3026 730
Q 3272 941 3272 1375
Q 3272 1813 3026 2020
Q 2781 2228 2272 2228
L 1259 2228
z
M 1259 4147
L 1259 2741
L 2194 2741
Q 2656 2741 2882 2914
Q 3109 3088 3109 3444
Q 3109 3797 2882 3972
Q 2656 4147 2194 4147
L 1259 4147
z
M 628 4666
L 2241 4666
Q 2963 4666 3353 4366
Q 3744 4066 3744 3513
Q 3744 3084 3544 2831
Q 3344 2578 2956 2516
Q 3422 2416 3680 2098
Q 3938 1781 3938 1306
Q 3938 681 3513 340
Q 3088 0 2303 0
L 628 0
L 628 4666
z
" transform="scale(0.015625)"/>
      <path id="DejaVuSans-4c" d="M 628 4666
L 1259 4666
L 1259 531
L 3531 531
L 3531 0
L 628 0
L 628 4666
z
" transform="scale(0.015625)"/>
     </defs>
     <use xlink:href="#DejaVuSans-42"/>
     <use xlink:href="#DejaVuSans-61" transform="translate(68.603516 0)"/>
     <use xlink:href="#DejaVuSans-73" transform="translate(129.882812 0)"/>
     <use xlink:href="#DejaVuSans-65" transform="translate(181.982422 0)"/>
     <use xlink:href="#DejaVuSans-20" transform="translate(243.505859 0)"/>
     <use xlink:href="#DejaVuSans-4c" transform="translate(275.292969 0)"/>
     <use xlink:href="#DejaVuSans-6f" transform="translate(329.255859 0)"/>
     <use xlink:href="#DejaVuSans-67" transform="translate(390.4375 0)"/>
     <use xlink:href="#DejaVuSans-69" transform="translate(453.914062 0)"/>
     <use xlink:href="#DejaVuSans-74" transform="translate(481.697266 0)"/>
    </g>
   </g>
   <g id="text_7">
    <!-- Sigmoid Probability -->
    <g transform="translate(481.941562 327.006875) scale(0.1 -0.1)">
     <defs>
      <path id="DejaVuSans-50" d="M 1259 4147
L 1259 2394
L 2053 2394
Q 2494 2394 2734 2622
Q 2975 2850 2975 3272
Q 2975 3691 2734 3919
Q 2494 4147 2053 4147
L 1259 4147
z
M 628 4666
L 2053 4666
Q 2838 4666 3239 4311
Q 3641 3956 3641 3272
Q 3641 2581 3239 2228
Q 2838 1875 2053 1875
L 1259 1875
L 1259 0
L 628 0
L 628 4666
z
" transform="scale(0.015625)"/>
     </defs>
     <use xlink:href="#DejaVuSans-53"/>
     <use xlink:href="#DejaVuSans-69" transform="translate(63.476562 0)"/>
     <use xlink:href="#DejaVuSans-67" transform="translate(91.259766 0)"/>
     <use xlink:href="#DejaVuSans-6d" transform="translate(154.736328 0)"/>
     <use xlink:href="#DejaVuSans-6f" transform="translate(252.148438 0)"/>
     <use xlink:href="#DejaVuSans-69" transform="translate(313.330078 0)"/>
     <use xlink:href="#DejaVuSans-64" transform="translate(341.113281 0)"/>
     <use xlink:href="#DejaVuSans-20" transform="translate(404.589844 0)"/>
     <use xlink:href="#DejaVuSans-50" transform="translate(436.376953 0)"/>
     <use xlink:href="#DejaVuSans-72" transform="translate(494.929688 0)"/>
     <use xlink:href="#DejaVuSans-6f" transform="translate(533.792969 0)"/>
     <use xlink:href="#DejaVuSans-62" transform="translate(594.974609 0)"/>
     <use xlink:href="#DejaVuSans-61" transform="translate(658.451172 0)"/>
     <use xlink:href="#DejaVuSans-62" transform="translate(719.730469 0)"/>
     <use xlink:href="#DejaVuSans-69" transform="translate(783.207031 0)"/>
     <use xlink:href="#DejaVuSans-6c" transform="translate(810.990234 0)"/>
     <use xlink:href="#DejaVuSans-69" transform="translate(838.773438 0)"/>
     <use xlink:href="#DejaVuSans-74" transform="translate(866.556641 0)"/>
     <use xlink:href="#DejaVuSans-79" transform="translate(905.765625 0)"/>
    </g>
   </g>
   <g id="text_8">
    <!-- Threshold Selection -->
    <g transform="translate(480.919687 406.701875) scale(0.1 -0.1)">
     <defs>
      <path id="DejaVuSans-54" d="M -19 4666
L 3928 4666
L 3928 4134
L 2272 4134
L 2272 0
L 1638 0
L 1638 4134
L -19 4134
L -19 4666
z
" transform="scale(0.015625)"/>
      <path id="DejaVuSans-68" d="M 3513 2113
L 3513 0
L 2938 0
L 2938 2094
Q 2938 2591 2744 2837
Q 2550 3084 2163 3084
Q 1697 3084 1428 2787
Q 1159 2491 1159 1978
L 1159 0
L 581 0
L 581 4863
L 1159 4863
L 1159 2956
Q 1366 3272 1645 3428
Q 1925 3584 2291 3584
Q 2894 3584 3203 3211
Q 3513 2838 3513 2113
z
" transform="scale(0.015625)"/>
     </defs>
     <use xlink:href="#DejaVuSans-54"/>
     <use xlink:href="#DejaVuSans-68" transform="translate(61.083984 0)"/>
     <use xlink:href="#DejaVuSans-72" transform="translate(124.462891 0)"/>
     <use xlink:href="#DejaVuSans-65" transform="translate(163.326172 0)"/>
     <use xlink:href="#DejaVuSans-73" transform="translate(224.849609 0)"/>
     <use xlink:href="#DejaVuSans-68" transform="translate(276.949219 0)"/>
     <use xlink:href="#DejaVuSans-6f" transform="translate(340.328125 0)"/>
     <use xlink:href="#DejaVuSans-6c" transform="translate(401.509766 0)"/>
     <use xlink:href="#DejaVuSans-64" transform="translate(429.292969 0)"/>
     <use xlink:href="#DejaVuSans-20" transform="translate(492.769531 0)"/>
     <use xlink:href="#DejaVuSans-53" transform="translate(524.556641 0)"/>
     <use xlink:href="#DejaVuSans-65" transform="translate(588.033203 0)"/>
     <use xlink:href="#DejaVuSans-6c" transform="translate(649.556641 0)"/>
     <use xlink:href="#DejaVuSans-65" transform="translate(677.339844 0)"/>
     <use xlink:href="#DejaVuSans-63" transform="translate(738.863281 0)"/>
     <use xlink:href="#DejaVuSans-74" transform="translate(793.84375 0)"/>
     <use xlink:href="#DejaVuSans-69" transform="translate(833.052734 0)"/>
     <use xlink:href="#DejaVuSans-6f" transform="translate(860.835938 0)"/>
     <use xlink:href="#DejaVuSans-6e" transform="translate(922.017578 0)"/>
    </g>
   </g>
   <g id="text_9">
    <!-- recall-first -->
    <g transform="translate(136.455625 492.925469) scale(0.1 -0.1)">
     <defs>
      <path id="DejaVuSans-2d" d="M 313 2009
L 1997 2009
L 1997 1497
L 313 1497
L 313 2009
z
" transform="scale(0.015625)"/>
     </defs>
     <use xlink:href="#DejaVuSans-72"/>
     <use xlink:href="#DejaVuSans-65" transform="translate(38.863281 0)"/>
     <use xlink:href="#DejaVuSans-63" transform="translate(100.386719 0)"/>
     <use xlink:href="#DejaVuSans-61" transform="translate(155.367188 0)"/>
     <use xlink:href="#DejaVuSans-6c" transform="translate(216.646484 0)"/>
     <use xlink:href="#DejaVuSans-6c" transform="translate(244.429688 0)"/>
     <use xlink:href="#DejaVuSans-2d" transform="translate(272.212891 0)"/>
     <use xlink:href="#DejaVuSans-66" transform="translate(308.296875 0)"/>
     <use xlink:href="#DejaVuSans-69" transform="translate(343.501953 0)"/>
     <use xlink:href="#DejaVuSans-72" transform="translate(371.285156 0)"/>
     <use xlink:href="#DejaVuSans-73" transform="translate(412.398438 0)"/>
     <use xlink:href="#DejaVuSans-74" transform="translate(464.498047 0)"/>
    </g>
    <!-- 0.20 deploy -->
    <g transform="translate(132.085312 504.123281) scale(0.1 -0.1)">
     <defs>
      <path id="DejaVuSans-2e" d="M 684 794
L 1344 794
L 1344 0
L 684 0
L 684 794
z
" transform="scale(0.015625)"/>
      <path id="DejaVuSans-32" d="M 1228 531
L 3431 531
L 3431 0
L 469 0
L 469 531
Q 828 903 1448 1529
Q 2069 2156 2228 2338
Q 2531 2678 2651 2914
Q 2772 3150 2772 3378
Q 2772 3750 2511 3984
Q 2250 4219 1831 4219
Q 1534 4219 1204 4116
Q 875 4013 500 3803
L 500 4441
Q 881 4594 1212 4672
Q 1544 4750 1819 4750
Q 2544 4750 2975 4387
Q 3406 4025 3406 3419
Q 3406 3131 3298 2873
Q 3191 2616 2906 2266
Q 2828 2175 2409 1742
Q 1991 1309 1228 531
z
" transform="scale(0.015625)"/>
     </defs>
     <use xlink:href="#DejaVuSans-30"/>
     <use xlink:href="#DejaVuSans-2e" transform="translate(63.623047 0)"/>
     <use xlink:href="#DejaVuSans-32" transform="translate(95.410156 0)"/>
     <use xlink:href="#DejaVuSans-30" transform="translate(159.033203 0)"/>
     <use xlink:href="#DejaVuSans-20" transform="translate(222.65625 0)"/>
     <use xlink:href="#DejaVuSans-64" transform="translate(254.443359 0)"/>
     <use xlink:href="#DejaVuSans-65" transform="translate(317.919922 0)"/>
     <use xlink:href="#DejaVuSans-70" transform="translate(379.443359 0)"/>
     <use xlink:href="#DejaVuSans-6c" transform="translate(442.919922 0)"/>
     <use xlink:href="#DejaVuSans-6f" transform="translate(470.703125 0)"/>
     <use xlink:href="#DejaVuSans-79" transform="translate(531.884766 0)"/>
    </g>
   </g>
   <g id="text_10">
    <!-- balanced / precision-first -->
    <g transform="translate(366.55 492.925469) scale(0.1 -0.1)">
     <use xlink:href="#DejaVuSans-62"/>
     <use xlink:href="#DejaVuSans-61" transform="translate(63.476562 0)"/>
     <use xlink:href="#DejaVuSans-6c" transform="translate(124.755859 0)"/>
     <use xlink:href="#DejaVuSans-61" transform="translate(152.539062 0)"/>
     <use xlink:href="#DejaVuSans-6e" transform="translate(213.818359 0)"/>
     <use xlink:href="#DejaVuSans-63" transform="translate(277.197266 0)"/>
     <use xlink:href="#DejaVuSans-65" transform="translate(332.177734 0)"/>
     <use xlink:href="#DejaVuSans-64" transform="translate(393.701172 0)"/>
     <use xlink:href="#DejaVuSans-20" transform="translate(457.177734 0)"/>
     <use xlink:href="#DejaVuSans-2f" transform="translate(488.964844 0)"/>
     <use xlink:href="#DejaVuSans-20" transform="translate(522.65625 0)"/>
     <use xlink:href="#DejaVuSans-70" transform="translate(554.443359 0)"/>
     <use xlink:href="#DejaVuSans-72" transform="translate(617.919922 0)"/>
     <use xlink:href="#DejaVuSans-65" transform="translate(656.783203 0)"/>
     <use xlink:href="#DejaVuSans-63" transform="translate(718.306641 0)"/>
     <use xlink:href="#DejaVuSans-69" transform="translate(773.287109 0)"/>
     <use xlink:href="#DejaVuSans-73" transform="translate(801.070312 0)"/>
     <use xlink:href="#DejaVuSans-69" transform="translate(853.169922 0)"/>
     <use xlink:href="#DejaVuSans-6f" transform="translate(880.953125 0)"/>
     <use xlink:href="#DejaVuSans-6e" transform="translate(942.134766 0)"/>
     <use xlink:href="#DejaVuSans-2d" transform="translate(1005.513672 0)"/>
     <use xlink:href="#DejaVuSans-66" transform="translate(1041.597656 0)"/>
     <use xlink:href="#DejaVuSans-69" transform="translate(1076.802734 0)"/>
     <use xlink:href="#DejaVuSans-72" transform="translate(1104.585938 0)"/>
     <use xlink:href="#DejaVuSans-73" transform="translate(1145.699219 0)"/>
     <use xlink:href="#DejaVuSans-74" transform="translate(1197.798828 0)"/>
    </g>
    <!-- 0.35 deploy -->
    <g transform="translate(398.845312 504.123281) scale(0.1 -0.1)">
     <defs>
      <path id="DejaVuSans-33" d="M 2597 2516
Q 3050 2419 3304 2112
Q 3559 1806 3559 1356
Q 3559 666 3084 287
Q 2609 -91 1734 -91
Q 1441 -91 1130 -33
Q 819 25 488 141
L 488 750
Q 750 597 1062 519
Q 1375 441 1716 441
Q 2309 441 2620 675
Q 2931 909 2931 1356
Q 2931 1769 2642 2001
Q 2353 2234 1838 2234
L 1294 2234
L 1294 2753
L 1863 2753
Q 2328 2753 2575 2939
Q 2822 3125 2822 3475
Q 2822 3834 2567 4026
Q 2313 4219 1838 4219
Q 1578 4219 1281 4162
Q 984 4106 628 3988
L 628 4550
Q 988 4650 1302 4700
Q 1616 4750 1894 4750
Q 2613 4750 3031 4423
Q 3450 4097 3450 3541
Q 3450 3153 3228 2886
Q 3006 2619 2597 2516
z
" transform="scale(0.015625)"/>
      <path id="DejaVuSans-35" d="M 691 4666
L 3169 4666
L 3169 4134
L 1269 4134
L 1269 2991
Q 1406 3038 1543 3061
Q 1681 3084 1819 3084
Q 2600 3084 3056 2656
Q 3513 2228 3513 1497
Q 3513 744 3044 326
Q 2575 -91 1722 -91
Q 1428 -91 1123 -41
Q 819 9 494 109
L 494 744
Q 775 591 1075 516
Q 1375 441 1709 441
Q 2250 441 2565 725
Q 2881 1009 2881 1497
Q 2881 1984 2565 2268
Q 2250 2553 1709 2553
Q 1456 2553 1204 2497
Q 953 2441 691 2322
L 691 4666
z
" transform="scale(0.015625)"/>
     </defs>
     <use xlink:href="#DejaVuSans-30"/>
     <use xlink:href="#DejaVuSans-2e" transform="translate(63.623047 0)"/>
     <use xlink:href="#DejaVuSans-33" transform="translate(95.410156 0)"/>
     <use xlink:href="#DejaVuSans-35" transform="translate(159.033203 0)"/>
     <use xlink:href="#DejaVuSans-20" transform="translate(222.65625 0)"/>
     <use xlink:href="#DejaVuSans-64" transform="translate(254.443359 0)"/>
     <use xlink:href="#DejaVuSans-65" transform="translate(317.919922 0)"/>
     <use xlink:href="#DejaVuSans-70" transform="translate(379.443359 0)"/>
     <use xlink:href="#DejaVuSans-6c" transform="translate(442.919922 0)"/>
     <use xlink:href="#DejaVuSans-6f" transform="translate(470.703125 0)"/>
     <use xlink:href="#DejaVuSans-79" transform="translate(531.884766 0)"/>
    </g>
   </g>
   <g id="text_11">
    <!-- 0.55 analysis-only -->
    <g transform="translate(653.230156 492.786406) scale(0.1 -0.1)">
     <use xlink:href="#DejaVuSans-30"/>
     <use xlink:href="#DejaVuSans-2e" transform="translate(63.623047 0)"/>
     <use xlink:href="#DejaVuSans-35" transform="translate(95.410156 0)"/>
     <use xlink:href="#DejaVuSans-35" transform="translate(159.033203 0)"/>
     <use xlink:href="#DejaVuSans-20" transform="translate(222.65625 0)"/>
     <use xlink:href="#DejaVuSans-61" transform="translate(254.443359 0)"/>
     <use xlink:href="#DejaVuSans-6e" transform="translate(315.722656 0)"/>
     <use xlink:href="#DejaVuSans-61" transform="translate(379.101562 0)"/>
     <use xlink:href="#DejaVuSans-6c" transform="translate(440.380859 0)"/>
     <use xlink:href="#DejaVuSans-79" transform="translate(468.164062 0)"/>
     <use xlink:href="#DejaVuSans-73" transform="translate(527.34375 0)"/>
     <use xlink:href="#DejaVuSans-69" transform="translate(579.443359 0)"/>
     <use xlink:href="#DejaVuSans-73" transform="translate(607.226562 0)"/>
     <use xlink:href="#DejaVuSans-2d" transform="translate(659.326172 0)"/>
     <use xlink:href="#DejaVuSans-6f" transform="translate(697.285156 0)"/>
     <use xlink:href="#DejaVuSans-6e" transform="translate(758.466797 0)"/>
     <use xlink:href="#DejaVuSans-6c" transform="translate(821.845703 0)"/>
     <use xlink:href="#DejaVuSans-79" transform="translate(849.628906 0)"/>
    </g>
    <!-- photos_test sweep -->
    <g transform="translate(651.931719 503.984219) scale(0.1 -0.1)">
     <use xlink:href="#DejaVuSans-70"/>
     <use xlink:href="#DejaVuSans-68" transform="translate(63.476562 0)"/>
     <use xlink:href="#DejaVuSans-6f" transform="translate(126.855469 0)"/>
     <use xlink:href="#DejaVuSans-74" transform="translate(188.037109 0)"/>
     <use xlink:href="#DejaVuSans-6f" transform="translate(227.246094 0)"/>
     <use xlink:href="#DejaVuSans-73" transform="translate(288.427734 0)"/>
     <use xlink:href="#DejaVuSans-5f" transform="translate(340.527344 0)"/>
     <use xlink:href="#DejaVuSans-74" transform="translate(390.527344 0)"/>
     <use xlink:href="#DejaVuSans-65" transform="translate(429.736328 0)"/>
     <use xlink:href="#DejaVuSans-73" transform="translate(491.259766 0)"/>
     <use xlink:href="#DejaVuSans-74" transform="translate(543.359375 0)"/>
     <use xlink:href="#DejaVuSans-20" transform="translate(582.568359 0)"/>
     <use xlink:href="#DejaVuSans-73" transform="translate(614.355469 0)"/>
     <use xlink:href="#DejaVuSans-77" transform="translate(666.455078 0)"/>
     <use xlink:href="#DejaVuSans-65" transform="translate(748.242188 0)"/>
     <use xlink:href="#DejaVuSans-65" transform="translate(809.765625 0)"/>
     <use xlink:href="#DejaVuSans-70" transform="translate(871.289062 0)"/>
    </g>
   </g>
   <g id="text_12">
    <!-- Noise Evidence -->
    <g transform="translate(695.5575 246.910469) scale(0.1 -0.1)">
     <defs>
      <path id="DejaVuSans-45" d="M 628 4666
L 3578 4666
L 3578 4134
L 1259 4134
L 1259 2753
L 3481 2753
L 3481 2222
L 1259 2222
L 1259 531
L 3634 531
L 3634 0
L 628 0
L 628 4666
z
" transform="scale(0.015625)"/>
      <path id="DejaVuSans-76" d="M 191 3500
L 800 3500
L 1894 563
L 2988 3500
L 3597 3500
L 2284 0
L 1503 0
L 191 3500
z
" transform="scale(0.015625)"/>
     </defs>
     <use xlink:href="#DejaVuSans-4e"/>
     <use xlink:href="#DejaVuSans-6f" transform="translate(74.804688 0)"/>
     <use xlink:href="#DejaVuSans-69" transform="translate(135.986328 0)"/>
     <use xlink:href="#DejaVuSans-73" transform="translate(163.769531 0)"/>
     <use xlink:href="#DejaVuSans-65" transform="translate(215.869141 0)"/>
     <use xlink:href="#DejaVuSans-20" transform="translate(277.392578 0)"/>
     <use xlink:href="#DejaVuSans-45" transform="translate(309.179688 0)"/>
     <use xlink:href="#DejaVuSans-76" transform="translate(372.363281 0)"/>
     <use xlink:href="#DejaVuSans-69" transform="translate(431.542969 0)"/>
     <use xlink:href="#DejaVuSans-64" transform="translate(459.326172 0)"/>
     <use xlink:href="#DejaVuSans-65" transform="translate(522.802734 0)"/>
     <use xlink:href="#DejaVuSans-6e" transform="translate(584.326172 0)"/>
     <use xlink:href="#DejaVuSans-63" transform="translate(647.705078 0)"/>
     <use xlink:href="#DejaVuSans-65" transform="translate(702.685547 0)"/>
    </g>
    <!-- SRM / Spectrum -->
    <g transform="translate(693.716094 258.108281) scale(0.1 -0.1)">
     <defs>
      <path id="DejaVuSans-4d" d="M 628 4666
L 1569 4666
L 2759 1491
L 3956 4666
L 4897 4666
L 4897 0
L 4281 0
L 4281 4097
L 3078 897
L 2444 897
L 1241 4097
L 1241 0
L 628 0
L 628 4666
z
" transform="scale(0.015625)"/>
     </defs>
     <use xlink:href="#DejaVuSans-53"/>
     <use xlink:href="#DejaVuSans-52" transform="translate(63.476562 0)"/>
     <use xlink:href="#DejaVuSans-4d" transform="translate(132.958984 0)"/>
     <use xlink:href="#DejaVuSans-20" transform="translate(219.238281 0)"/>
     <use xlink:href="#DejaVuSans-2f" transform="translate(251.025391 0)"/>
     <use xlink:href="#DejaVuSans-20" transform="translate(284.716797 0)"/>
     <use xlink:href="#DejaVuSans-53" transform="translate(316.503906 0)"/>
     <use xlink:href="#DejaVuSans-70" transform="translate(379.980469 0)"/>
     <use xlink:href="#DejaVuSans-65" transform="translate(443.457031 0)"/>
     <use xlink:href="#DejaVuSans-63" transform="translate(504.980469 0)"/>
     <use xlink:href="#DejaVuSans-74" transform="translate(559.960938 0)"/>
     <use xlink:href="#DejaVuSans-72" transform="translate(599.169922 0)"/>
     <use xlink:href="#DejaVuSans-75" transform="translate(640.283203 0)"/>
     <use xlink:href="#DejaVuSans-6d" transform="translate(703.662109 0)"/>
    </g>
   </g>
   <g id="text_13">
    <!-- Explanation Output -->
    <g transform="translate(685.256719 332.204375) scale(0.1 -0.1)">
     <defs>
      <path id="DejaVuSans-78" d="M 3513 3500
L 2247 1797
L 3578 0
L 2900 0
L 1881 1375
L 863 0
L 184 0
L 1544 1831
L 300 3500
L 978 3500
L 1906 2253
L 2834 3500
L 3513 3500
z
" transform="scale(0.015625)"/>
      <path id="DejaVuSans-4f" d="M 2522 4238
Q 1834 4238 1429 3725
Q 1025 3213 1025 2328
Q 1025 1447 1429 934
Q 1834 422 2522 422
Q 3209 422 3611 934
Q 4013 1447 4013 2328
Q 4013 3213 3611 3725
Q 3209 4238 2522 4238
z
M 2522 4750
Q 3503 4750 4090 4092
Q 4678 3434 4678 2328
Q 4678 1225 4090 567
Q 3503 -91 2522 -91
Q 1538 -91 948 565
Q 359 1222 359 2328
Q 359 3434 948 4092
Q 1538 4750 2522 4750
z
" transform="scale(0.015625)"/>
     </defs>
     <use xlink:href="#DejaVuSans-45"/>
     <use xlink:href="#DejaVuSans-78" transform="translate(63.183594 0)"/>
     <use xlink:href="#DejaVuSans-70" transform="translate(122.363281 0)"/>
     <use xlink:href="#DejaVuSans-6c" transform="translate(185.839844 0)"/>
     <use xlink:href="#DejaVuSans-61" transform="translate(213.623047 0)"/>
     <use xlink:href="#DejaVuSans-6e" transform="translate(274.902344 0)"/>
     <use xlink:href="#DejaVuSans-61" transform="translate(338.28125 0)"/>
     <use xlink:href="#DejaVuSans-74" transform="translate(399.560547 0)"/>
     <use xlink:href="#DejaVuSans-69" transform="translate(438.769531 0)"/>
     <use xlink:href="#DejaVuSans-6f" transform="translate(466.552734 0)"/>
     <use xlink:href="#DejaVuSans-6e" transform="translate(527.734375 0)"/>
     <use xlink:href="#DejaVuSans-20" transform="translate(591.113281 0)"/>
     <use xlink:href="#DejaVuSans-4f" transform="translate(622.900391 0)"/>
     <use xlink:href="#DejaVuSans-75" transform="translate(701.611328 0)"/>
     <use xlink:href="#DejaVuSans-74" transform="translate(764.990234 0)"/>
     <use xlink:href="#DejaVuSans-70" transform="translate(804.199219 0)"/>
     <use xlink:href="#DejaVuSans-75" transform="translate(867.675781 0)"/>
     <use xlink:href="#DejaVuSans-74" transform="translate(931.054688 0)"/>
    </g>
   </g>
   <g id="text_14">
    <!-- System Inference Flow: deployment thresholds vs analysis-only sweep point -->
    <g transform="translate(125.850156 21.403437) scale(0.14 -0.14)">
     <defs>
      <path id="DejaVuSans-Bold-53" d="M 3834 4519
L 3834 3531
Q 3450 3703 3084 3790
Q 2719 3878 2394 3878
Q 1963 3878 1756 3759
Q 1550 3641 1550 3391
Q 1550 3203 1689 3098
Q 1828 2994 2194 2919
L 2706 2816
Q 3484 2659 3812 2340
Q 4141 2022 4141 1434
Q 4141 663 3683 286
Q 3225 -91 2284 -91
Q 1841 -91 1394 -6
Q 947 78 500 244
L 500 1259
Q 947 1022 1364 901
Q 1781 781 2169 781
Q 2563 781 2772 912
Q 2981 1044 2981 1288
Q 2981 1506 2839 1625
Q 2697 1744 2272 1838
L 1806 1941
Q 1106 2091 782 2419
Q 459 2747 459 3303
Q 459 4000 909 4375
Q 1359 4750 2203 4750
Q 2588 4750 2994 4692
Q 3400 4634 3834 4519
z
" transform="scale(0.015625)"/>
      <path id="DejaVuSans-Bold-79" d="M 78 3500
L 1197 3500
L 2138 1125
L 2938 3500
L 4056 3500
L 2584 -331
Q 2363 -916 2067 -1148
Q 1772 -1381 1288 -1381
L 641 -1381
L 641 -647
L 991 -647
Q 1275 -647 1404 -556
Q 1534 -466 1606 -231
L 1638 -134
L 78 3500
z
" transform="scale(0.015625)"/>
      <path id="DejaVuSans-Bold-73" d="M 3272 3391
L 3272 2541
Q 2913 2691 2578 2766
Q 2244 2841 1947 2841
Q 1628 2841 1473 2761
Q 1319 2681 1319 2516
Q 1319 2381 1436 2309
Q 1553 2238 1856 2203
L 2053 2175
Q 2913 2066 3209 1816
Q 3506 1566 3506 1031
Q 3506 472 3093 190
Q 2681 -91 1863 -91
Q 1516 -91 1145 -36
Q 775 19 384 128
L 384 978
Q 719 816 1070 734
Q 1422 653 1784 653
Q 2113 653 2278 743
Q 2444 834 2444 1013
Q 2444 1163 2330 1236
Q 2216 1309 1875 1350
L 1678 1375
Q 931 1469 631 1722
Q 331 1975 331 2491
Q 331 3047 712 3315
Q 1094 3584 1881 3584
Q 2191 3584 2531 3537
Q 2872 3491 3272 3391
z
" transform="scale(0.015625)"/>
      <path id="DejaVuSans-Bold-74" d="M 1759 4494
L 1759 3500
L 2913 3500
L 2913 2700
L 1759 2700
L 1759 1216
Q 1759 972 1856 886
Q 1953 800 2241 800
L 2816 800
L 2816 0
L 1856 0
Q 1194 0 917 276
Q 641 553 641 1216
L 641 2700
L 84 2700
L 84 3500
L 641 3500
L 641 4494
L 1759 4494
z
" transform="scale(0.015625)"/>
      <path id="DejaVuSans-Bold-65" d="M 4031 1759
L 4031 1441
L 1416 1441
Q 1456 1047 1700 850
Q 1944 653 2381 653
Q 2734 653 3104 758
Q 3475 863 3866 1075
L 3866 213
Q 3469 63 3072 -14
Q 2675 -91 2278 -91
Q 1328 -91 801 392
Q 275 875 275 1747
Q 275 2603 792 3093
Q 1309 3584 2216 3584
Q 3041 3584 3536 3087
Q 4031 2591 4031 1759
z
M 2881 2131
Q 2881 2450 2695 2645
Q 2509 2841 2209 2841
Q 1884 2841 1681 2658
Q 1478 2475 1428 2131
L 2881 2131
z
" transform="scale(0.015625)"/>
      <path id="DejaVuSans-Bold-6d" d="M 3781 2919
Q 3994 3244 4286 3414
Q 4578 3584 4928 3584
Q 5531 3584 5847 3212
Q 6163 2841 6163 2131
L 6163 0
L 5038 0
L 5038 1825
Q 5041 1866 5042 1909
Q 5044 1953 5044 2034
Q 5044 2406 4934 2573
Q 4825 2741 4581 2741
Q 4263 2741 4089 2478
Q 3916 2216 3909 1719
L 3909 0
L 2784 0
L 2784 1825
Q 2784 2406 2684 2573
Q 2584 2741 2328 2741
Q 2006 2741 1831 2477
Q 1656 2213 1656 1722
L 1656 0
L 531 0
L 531 3500
L 1656 3500
L 1656 2988
Q 1863 3284 2130 3434
Q 2397 3584 2719 3584
Q 3081 3584 3359 3409
Q 3638 3234 3781 2919
z
" transform="scale(0.015625)"/>
      <path id="DejaVuSans-Bold-20" transform="scale(0.015625)"/>
      <path id="DejaVuSans-Bold-49" d="M 588 4666
L 1791 4666
L 1791 0
L 588 0
L 588 4666
z
" transform="scale(0.015625)"/>
      <path id="DejaVuSans-Bold-6e" d="M 4056 2131
L 4056 0
L 2931 0
L 2931 347
L 2931 1631
Q 2931 2084 2911 2256
Q 2891 2428 2841 2509
Q 2775 2619 2662 2680
Q 2550 2741 2406 2741
Q 2056 2741 1856 2470
Q 1656 2200 1656 1722
L 1656 0
L 538 0
L 538 3500
L 1656 3500
L 1656 2988
Q 1909 3294 2193 3439
Q 2478 3584 2822 3584
Q 3428 3584 3742 3212
Q 4056 2841 4056 2131
z
" transform="scale(0.015625)"/>
      <path id="DejaVuSans-Bold-66" d="M 2841 4863
L 2841 4128
L 2222 4128
Q 1984 4128 1890 4042
Q 1797 3956 1797 3744
L 1797 3500
L 2753 3500
L 2753 2700
L 1797 2700
L 1797 0
L 678 0
L 678 2700
L 122 2700
L 122 3500
L 678 3500
L 678 3744
Q 678 4316 997 4589
Q 1316 4863 1984 4863
L 2841 4863
z
" transform="scale(0.015625)"/>
      <path id="DejaVuSans-Bold-72" d="M 3138 2547
Q 2991 2616 2845 2648
Q 2700 2681 2553 2681
Q 2122 2681 1889 2404
Q 1656 2128 1656 1613
L 1656 0
L 538 0
L 538 3500
L 1656 3500
L 1656 2925
Q 1872 3269 2151 3426
Q 2431 3584 2822 3584
Q 2878 3584 2943 3579
Q 3009 3575 3134 3559
L 3138 2547
z
" transform="scale(0.015625)"/>
      <path id="DejaVuSans-Bold-63" d="M 3366 3391
L 3366 2478
Q 3138 2634 2908 2709
Q 2678 2784 2431 2784
Q 1963 2784 1702 2511
Q 1441 2238 1441 1747
Q 1441 1256 1702 982
Q 1963 709 2431 709
Q 2694 709 2930 787
Q 3166 866 3366 1019
L 3366 103
Q 3103 6 2833 -42
Q 2563 -91 2291 -91
Q 1344 -91 809 395
Q 275 881 275 1747
Q 275 2613 809 3098
Q 1344 3584 2291 3584
Q 2566 3584 2833 3536
Q 3100 3488 3366 3391
z
" transform="scale(0.015625)"/>
      <path id="DejaVuSans-Bold-46" d="M 588 4666
L 3834 4666
L 3834 3756
L 1791 3756
L 1791 2888
L 3713 2888
L 3713 1978
L 1791 1978
L 1791 0
L 588 0
L 588 4666
z
" transform="scale(0.015625)"/>
      <path id="DejaVuSans-Bold-6c" d="M 538 4863
L 1656 4863
L 1656 0
L 538 0
L 538 4863
z
" transform="scale(0.015625)"/>
      <path id="DejaVuSans-Bold-6f" d="M 2203 2784
Q 1831 2784 1636 2517
Q 1441 2250 1441 1747
Q 1441 1244 1636 976
Q 1831 709 2203 709
Q 2569 709 2762 976
Q 2956 1244 2956 1747
Q 2956 2250 2762 2517
Q 2569 2784 2203 2784
z
M 2203 3584
Q 3106 3584 3614 3096
Q 4122 2609 4122 1747
Q 4122 884 3614 396
Q 3106 -91 2203 -91
Q 1297 -91 786 396
Q 275 884 275 1747
Q 275 2609 786 3096
Q 1297 3584 2203 3584
z
" transform="scale(0.015625)"/>
      <path id="DejaVuSans-Bold-77" d="M 225 3500
L 1313 3500
L 1900 1088
L 2491 3500
L 3425 3500
L 4013 1113
L 4603 3500
L 5691 3500
L 4769 0
L 3547 0
L 2956 2406
L 2369 0
L 1147 0
L 225 3500
z
" transform="scale(0.015625)"/>
      <path id="DejaVuSans-Bold-3a" d="M 716 3500
L 1844 3500
L 1844 2291
L 716 2291
L 716 3500
z
M 716 1209
L 1844 1209
L 1844 0
L 716 0
L 716 1209
z
" transform="scale(0.015625)"/>
      <path id="DejaVuSans-Bold-64" d="M 2919 2988
L 2919 4863
L 4044 4863
L 4044 0
L 2919 0
L 2919 506
Q 2688 197 2409 53
Q 2131 -91 1766 -91
Q 1119 -91 703 423
Q 288 938 288 1747
Q 288 2556 703 3070
Q 1119 3584 1766 3584
Q 2128 3584 2408 3439
Q 2688 3294 2919 2988
z
M 2181 722
Q 2541 722 2730 984
Q 2919 1247 2919 1747
Q 2919 2247 2730 2509
Q 2541 2772 2181 2772
Q 1825 2772 1636 2509
Q 1447 2247 1447 1747
Q 1447 1247 1636 984
Q 1825 722 2181 722
z
" transform="scale(0.015625)"/>
      <path id="DejaVuSans-Bold-70" d="M 1656 506
L 1656 -1331
L 538 -1331
L 538 3500
L 1656 3500
L 1656 2988
Q 1888 3294 2169 3439
Q 2450 3584 2816 3584
Q 3463 3584 3878 3070
Q 4294 2556 4294 1747
Q 4294 938 3878 423
Q 3463 -91 2816 -91
Q 2450 -91 2169 54
Q 1888 200 1656 506
z
M 2400 2772
Q 2041 2772 1848 2508
Q 1656 2244 1656 1747
Q 1656 1250 1848 986
Q 2041 722 2400 722
Q 2759 722 2948 984
Q 3138 1247 3138 1747
Q 3138 2247 2948 2509
Q 2759 2772 2400 2772
z
" transform="scale(0.015625)"/>
      <path id="DejaVuSans-Bold-68" d="M 4056 2131
L 4056 0
L 2931 0
L 2931 347
L 2931 1625
Q 2931 2084 2911 2256
Q 2891 2428 2841 2509
Q 2775 2619 2662 2680
Q 2550 2741 2406 2741
Q 2056 2741 1856 2470
Q 1656 2200 1656 1722
L 1656 0
L 538 0
L 538 4863
L 1656 4863
L 1656 2988
Q 1909 3294 2193 3439
Q 2478 3584 2822 3584
Q 3428 3584 3742 3212
Q 4056 2841 4056 2131
z
" transform="scale(0.015625)"/>
      <path id="DejaVuSans-Bold-76" d="M 97 3500
L 1216 3500
L 2088 1081
L 2956 3500
L 4078 3500
L 2700 0
L 1472 0
L 97 3500
z
" transform="scale(0.015625)"/>
      <path id="DejaVuSans-Bold-61" d="M 2106 1575
Q 1756 1575 1579 1456
Q 1403 1338 1403 1106
Q 1403 894 1545 773
Q 1688 653 1941 653
Q 2256 653 2472 879
Q 2688 1106 2688 1447
L 2688 1575
L 2106 1575
z
M 3816 1997
L 3816 0
L 2688 0
L 2688 519
Q 2463 200 2181 54
Q 1900 -91 1497 -91
Q 953 -91 614 226
Q 275 544 275 1050
Q 275 1666 698 1953
Q 1122 2241 2028 2241
L 2688 2241
L 2688 2328
Q 2688 2594 2478 2717
Q 2269 2841 1825 2841
Q 1466 2841 1156 2769
Q 847 2697 581 2553
L 581 3406
Q 941 3494 1303 3539
Q 1666 3584 2028 3584
Q 2975 3584 3395 3211
Q 3816 2838 3816 1997
z
" transform="scale(0.015625)"/>
      <path id="DejaVuSans-Bold-69" d="M 538 3500
L 1656 3500
L 1656 0
L 538 0
L 538 3500
z
M 538 4863
L 1656 4863
L 1656 3950
L 538 3950
L 538 4863
z
" transform="scale(0.015625)"/>
      <path id="DejaVuSans-Bold-2d" d="M 347 2297
L 2309 2297
L 2309 1388
L 347 1388
L 347 2297
z
" transform="scale(0.015625)"/>
     </defs>
     <use xlink:href="#DejaVuSans-Bold-53"/>
     <use xlink:href="#DejaVuSans-Bold-79" transform="translate(72.021484 0)"/>
     <use xlink:href="#DejaVuSans-Bold-73" transform="translate(137.207031 0)"/>
     <use xlink:href="#DejaVuSans-Bold-74" transform="translate(196.728516 0)"/>
     <use xlink:href="#DejaVuSans-Bold-65" transform="translate(244.53125 0)"/>
     <use xlink:href="#DejaVuSans-Bold-6d" transform="translate(312.353516 0)"/>
     <use xlink:href="#DejaVuSans-Bold-20" transform="translate(416.552734 0)"/>
     <use xlink:href="#DejaVuSans-Bold-49" transform="translate(451.367188 0)"/>
     <use xlink:href="#DejaVuSans-Bold-6e" transform="translate(488.574219 0)"/>
     <use xlink:href="#DejaVuSans-Bold-66" transform="translate(559.765625 0)"/>
     <use xlink:href="#DejaVuSans-Bold-65" transform="translate(603.271484 0)"/>
     <use xlink:href="#DejaVuSans-Bold-72" transform="translate(671.09375 0)"/>
     <use xlink:href="#DejaVuSans-Bold-65" transform="translate(720.410156 0)"/>
     <use xlink:href="#DejaVuSans-Bold-6e" transform="translate(788.232422 0)"/>
     <use xlink:href="#DejaVuSans-Bold-63" transform="translate(859.423828 0)"/>
     <use xlink:href="#DejaVuSans-Bold-65" transform="translate(918.701172 0)"/>
     <use xlink:href="#DejaVuSans-Bold-20" transform="translate(986.523438 0)"/>
     <use xlink:href="#DejaVuSans-Bold-46" transform="translate(1021.337891 0)"/>
     <use xlink:href="#DejaVuSans-Bold-6c" transform="translate(1089.648438 0)"/>
     <use xlink:href="#DejaVuSans-Bold-6f" transform="translate(1123.925781 0)"/>
     <use xlink:href="#DejaVuSans-Bold-77" transform="translate(1192.626953 0)"/>
     <use xlink:href="#DejaVuSans-Bold-3a" transform="translate(1285.009766 0)"/>
     <use xlink:href="#DejaVuSans-Bold-20" transform="translate(1325 0)"/>
     <use xlink:href="#DejaVuSans-Bold-64" transform="translate(1359.814453 0)"/>
     <use xlink:href="#DejaVuSans-Bold-65" transform="translate(1431.396484 0)"/>
     <use xlink:href="#DejaVuSans-Bold-70" transform="translate(1499.21875 0)"/>
     <use xlink:href="#DejaVuSans-Bold-6c" transform="translate(1570.800781 0)"/>
     <use xlink:href="#DejaVuSans-Bold-6f" transform="translate(1605.078125 0)"/>
     <use xlink:href="#DejaVuSans-Bold-79" transform="translate(1673.779297 0)"/>
     <use xlink:href="#DejaVuSans-Bold-6d" transform="translate(1738.964844 0)"/>
     <use xlink:href="#DejaVuSans-Bold-65" transform="translate(1843.164062 0)"/>
     <use xlink:href="#DejaVuSans-Bold-6e" transform="translate(1910.986328 0)"/>
     <use xlink:href="#DejaVuSans-Bold-74" transform="translate(1982.177734 0)"/>
     <use xlink:href="#DejaVuSans-Bold-20" transform="translate(2029.980469 0)"/>
     <use xlink:href="#DejaVuSans-Bold-74" transform="translate(2064.794922 0)"/>
     <use xlink:href="#DejaVuSans-Bold-68" transform="translate(2112.597656 0)"/>
     <use xlink:href="#DejaVuSans-Bold-72" transform="translate(2183.789062 0)"/>
     <use xlink:href="#DejaVuSans-Bold-65" transform="translate(2233.105469 0)"/>
     <use xlink:href="#DejaVuSans-Bold-73" transform="translate(2300.927734 0)"/>
     <use xlink:href="#DejaVuSans-Bold-68" transform="translate(2360.449219 0)"/>
     <use xlink:href="#DejaVuSans-Bold-6f" transform="translate(2431.640625 0)"/>
     <use xlink:href="#DejaVuSans-Bold-6c" transform="translate(2500.341797 0)"/>
     <use xlink:href="#DejaVuSans-Bold-64" transform="translate(2534.619141 0)"/>
     <use xlink:href="#DejaVuSans-Bold-73" transform="translate(2606.201172 0)"/>
     <use xlink:href="#DejaVuSans-Bold-20" transform="translate(2665.722656 0)"/>
     <use xlink:href="#DejaVuSans-Bold-76" transform="translate(2700.537109 0)"/>
     <use xlink:href="#DejaVuSans-Bold-73" transform="translate(2765.722656 0)"/>
     <use xlink:href="#DejaVuSans-Bold-20" transform="translate(2825.244141 0)"/>
     <use xlink:href="#DejaVuSans-Bold-61" transform="translate(2860.058594 0)"/>
     <use xlink:href="#DejaVuSans-Bold-6e" transform="translate(2927.539062 0)"/>
     <use xlink:href="#DejaVuSans-Bold-61" transform="translate(2998.730469 0)"/>
     <use xlink:href="#DejaVuSans-Bold-6c" transform="translate(3066.210938 0)"/>
     <use xlink:href="#DejaVuSans-Bold-79" transform="translate(3100.488281 0)"/>
     <use xlink:href="#DejaVuSans-Bold-73" transform="translate(3165.673828 0)"/>
     <use xlink:href="#DejaVuSans-Bold-69" transform="translate(3225.195312 0)"/>
     <use xlink:href="#DejaVuSans-Bold-73" transform="translate(3259.472656 0)"/>
     <use xlink:href="#DejaVuSans-Bold-2d" transform="translate(3318.994141 0)"/>
     <use xlink:href="#DejaVuSans-Bold-6f" transform="translate(3360.498047 0)"/>
     <use xlink:href="#DejaVuSans-Bold-6e" transform="translate(3429.199219 0)"/>
     <use xlink:href="#DejaVuSans-Bold-6c" transform="translate(3500.390625 0)"/>
     <use xlink:href="#DejaVuSans-Bold-79" transform="translate(3534.667969 0)"/>
     <use xlink:href="#DejaVuSans-Bold-20" transform="translate(3599.853516 0)"/>
     <use xlink:href="#DejaVuSans-Bold-73" transform="translate(3634.667969 0)"/>
     <use xlink:href="#DejaVuSans-Bold-77" transform="translate(3694.189453 0)"/>
     <use xlink:href="#DejaVuSans-Bold-65" transform="translate(3786.572266 0)"/>
     <use xlink:href="#DejaVuSans-Bold-65" transform="translate(3854.394531 0)"/>
     <use xlink:href="#DejaVuSans-Bold-70" transform="translate(3922.216797 0)"/>
     <use xlink:href="#DejaVuSans-Bold-20" transform="translate(3993.798828 0)"/>
     <use xlink:href="#DejaVuSans-Bold-70" transform="translate(4028.613281 0)"/>
     <use xlink:href="#DejaVuSans-Bold-6f" transform="translate(4100.195312 0)"/>
     <use xlink:href="#DejaVuSans-Bold-69" transform="translate(4168.896484 0)"/>
     <use xlink:href="#DejaVuSans-Bold-6e" transform="translate(4203.173828 0)"/>
     <use xlink:href="#DejaVuSans-Bold-74" transform="translate(4274.365234 0)"/>
    </g>
   </g>
   <g id="text_15">
    <!-- Default final decision logit uses semantic + frequency base path; noise evidence is auxiliary. -->
    <g style="fill: #475569" transform="translate(219.480469 553.688437) scale(0.09 -0.09)">
     <defs>
      <path id="DejaVuSans-44" d="M 1259 4147
L 1259 519
L 2022 519
Q 2988 519 3436 956
Q 3884 1394 3884 2338
Q 3884 3275 3436 3711
Q 2988 4147 2022 4147
L 1259 4147
z
M 628 4666
L 1925 4666
Q 3281 4666 3915 4102
Q 4550 3538 4550 2338
Q 4550 1131 3912 565
Q 3275 0 1925 0
L 628 0
L 628 4666
z
" transform="scale(0.015625)"/>
      <path id="DejaVuSans-2b" d="M 2944 4013
L 2944 2272
L 4684 2272
L 4684 1741
L 2944 1741
L 2944 0
L 2419 0
L 2419 1741
L 678 1741
L 678 2272
L 2419 2272
L 2419 4013
L 2944 4013
z
" transform="scale(0.015625)"/>
      <path id="DejaVuSans-3b" d="M 750 3309
L 1409 3309
L 1409 2516
L 750 2516
L 750 3309
z
M 750 794
L 1409 794
L 1409 256
L 897 -744
L 494 -744
L 750 256
L 750 794
z
" transform="scale(0.015625)"/>
     </defs>
     <use xlink:href="#DejaVuSans-44"/>
     <use xlink:href="#DejaVuSans-65" transform="translate(77.001953 0)"/>
     <use xlink:href="#DejaVuSans-66" transform="translate(138.525391 0)"/>
     <use xlink:href="#DejaVuSans-61" transform="translate(173.730469 0)"/>
     <use xlink:href="#DejaVuSans-75" transform="translate(235.009766 0)"/>
     <use xlink:href="#DejaVuSans-6c" transform="translate(298.388672 0)"/>
     <use xlink:href="#DejaVuSans-74" transform="translate(326.171875 0)"/>
     <use xlink:href="#DejaVuSans-20" transform="translate(365.380859 0)"/>
     <use xlink:href="#DejaVuSans-66" transform="translate(397.167969 0)"/>
     <use xlink:href="#DejaVuSans-69" transform="translate(432.373047 0)"/>
     <use xlink:href="#DejaVuSans-6e" transform="translate(460.15625 0)"/>
     <use xlink:href="#DejaVuSans-61" transform="translate(523.535156 0)"/>
     <use xlink:href="#DejaVuSans-6c" transform="translate(584.814453 0)"/>
     <use xlink:href="#DejaVuSans-20" transform="translate(612.597656 0)"/>
     <use xlink:href="#DejaVuSans-64" transform="translate(644.384766 0)"/>
     <use xlink:href="#DejaVuSans-65" transform="translate(707.861328 0)"/>
     <use xlink:href="#DejaVuSans-63" transform="translate(769.384766 0)"/>
     <use xlink:href="#DejaVuSans-69" transform="translate(824.365234 0)"/>
     <use xlink:href="#DejaVuSans-73" transform="translate(852.148438 0)"/>
     <use xlink:href="#DejaVuSans-69" transform="translate(904.248047 0)"/>
     <use xlink:href="#DejaVuSans-6f" transform="translate(932.03125 0)"/>
     <use xlink:href="#DejaVuSans-6e" transform="translate(993.212891 0)"/>
     <use xlink:href="#DejaVuSans-20" transform="translate(1056.591797 0)"/>
     <use xlink:href="#DejaVuSans-6c" transform="translate(1088.378906 0)"/>
     <use xlink:href="#DejaVuSans-6f" transform="translate(1116.162109 0)"/>
     <use xlink:href="#DejaVuSans-67" transform="translate(1177.34375 0)"/>
     <use xlink:href="#DejaVuSans-69" transform="translate(1240.820312 0)"/>
     <use xlink:href="#DejaVuSans-74" transform="translate(1268.603516 0)"/>
     <use xlink:href="#DejaVuSans-20" transform="translate(1307.8125 0)"/>
     <use xlink:href="#DejaVuSans-75" transform="translate(1339.599609 0)"/>
     <use xlink:href="#DejaVuSans-73" transform="translate(1402.978516 0)"/>
     <use xlink:href="#DejaVuSans-65" transform="translate(1455.078125 0)"/>
     <use xlink:href="#DejaVuSans-73" transform="translate(1516.601562 0)"/>
     <use xlink:href="#DejaVuSans-20" transform="translate(1568.701172 0)"/>
     <use xlink:href="#DejaVuSans-73" transform="translate(1600.488281 0)"/>
     <use xlink:href="#DejaVuSans-65" transform="translate(1652.587891 0)"/>
     <use xlink:href="#DejaVuSans-6d" transform="translate(1714.111328 0)"/>
     <use xlink:href="#DejaVuSans-61" transform="translate(1811.523438 0)"/>
     <use xlink:href="#DejaVuSans-6e" transform="translate(1872.802734 0)"/>
     <use xlink:href="#DejaVuSans-74" transform="translate(1936.181641 0)"/>
     <use xlink:href="#DejaVuSans-69" transform="translate(1975.390625 0)"/>
     <use xlink:href="#DejaVuSans-63" transform="translate(2003.173828 0)"/>
     <use xlink:href="#DejaVuSans-20" transform="translate(2058.154297 0)"/>
     <use xlink:href="#DejaVuSans-2b" transform="translate(2089.941406 0)"/>
     <use xlink:href="#DejaVuSans-20" transform="translate(2173.730469 0)"/>
     <use xlink:href="#DejaVuSans-66" transform="translate(2205.517578 0)"/>
     <use xlink:href="#DejaVuSans-72" transform="translate(2240.722656 0)"/>
     <use xlink:href="#DejaVuSans-65" transform="translate(2279.585938 0)"/>
     <use xlink:href="#DejaVuSans-71" transform="translate(2341.109375 0)"/>
     <use xlink:href="#DejaVuSans-75" transform="translate(2404.585938 0)"/>
     <use xlink:href="#DejaVuSans-65" transform="translate(2467.964844 0)"/>
     <use xlink:href="#DejaVuSans-6e" transform="translate(2529.488281 0)"/>
     <use xlink:href="#DejaVuSans-63" transform="translate(2592.867188 0)"/>
     <use xlink:href="#DejaVuSans-79" transform="translate(2647.847656 0)"/>
     <use xlink:href="#DejaVuSans-20" transform="translate(2707.027344 0)"/>
     <use xlink:href="#DejaVuSans-62" transform="translate(2738.814453 0)"/>
     <use xlink:href="#DejaVuSans-61" transform="translate(2802.291016 0)"/>
     <use xlink:href="#DejaVuSans-73" transform="translate(2863.570312 0)"/>
     <use xlink:href="#DejaVuSans-65" transform="translate(2915.669922 0)"/>
     <use xlink:href="#DejaVuSans-20" transform="translate(2977.193359 0)"/>
     <use xlink:href="#DejaVuSans-70" transform="translate(3008.980469 0)"/>
     <use xlink:href="#DejaVuSans-61" transform="translate(3072.457031 0)"/>
     <use xlink:href="#DejaVuSans-74" transform="translate(3133.736328 0)"/>
     <use xlink:href="#DejaVuSans-68" transform="translate(3172.945312 0)"/>
     <use xlink:href="#DejaVuSans-3b" transform="translate(3236.324219 0)"/>
     <use xlink:href="#DejaVuSans-20" transform="translate(3270.015625 0)"/>
     <use xlink:href="#DejaVuSans-6e" transform="translate(3301.802734 0)"/>
     <use xlink:href="#DejaVuSans-6f" transform="translate(3365.181641 0)"/>
     <use xlink:href="#DejaVuSans-69" transform="translate(3426.363281 0)"/>
     <use xlink:href="#DejaVuSans-73" transform="translate(3454.146484 0)"/>
     <use xlink:href="#DejaVuSans-65" transform="translate(3506.246094 0)"/>
     <use xlink:href="#DejaVuSans-20" transform="translate(3567.769531 0)"/>
     <use xlink:href="#DejaVuSans-65" transform="translate(3599.556641 0)"/>
     <use xlink:href="#DejaVuSans-76" transform="translate(3661.080078 0)"/>
     <use xlink:href="#DejaVuSans-69" transform="translate(3720.259766 0)"/>
     <use xlink:href="#DejaVuSans-64" transform="translate(3748.042969 0)"/>
     <use xlink:href="#DejaVuSans-65" transform="translate(3811.519531 0)"/>
     <use xlink:href="#DejaVuSans-6e" transform="translate(3873.042969 0)"/>
     <use xlink:href="#DejaVuSans-63" transform="translate(3936.421875 0)"/>
     <use xlink:href="#DejaVuSans-65" transform="translate(3991.402344 0)"/>
     <use xlink:href="#DejaVuSans-20" transform="translate(4052.925781 0)"/>
     <use xlink:href="#DejaVuSans-69" transform="translate(4084.712891 0)"/>
     <use xlink:href="#DejaVuSans-73" transform="translate(4112.496094 0)"/>
     <use xlink:href="#DejaVuSans-20" transform="translate(4164.595703 0)"/>
     <use xlink:href="#DejaVuSans-61" transform="translate(4196.382812 0)"/>
     <use xlink:href="#DejaVuSans-75" transform="translate(4257.662109 0)"/>
     <use xlink:href="#DejaVuSans-78" transform="translate(4321.041016 0)"/>
     <use xlink:href="#DejaVuSans-69" transform="translate(4380.220703 0)"/>
     <use xlink:href="#DejaVuSans-6c" transform="translate(4408.003906 0)"/>
     <use xlink:href="#DejaVuSans-69" transform="translate(4435.787109 0)"/>
     <use xlink:href="#DejaVuSans-61" transform="translate(4463.570312 0)"/>
     <use xlink:href="#DejaVuSans-72" transform="translate(4524.849609 0)"/>
     <use xlink:href="#DejaVuSans-79" transform="translate(4565.962891 0)"/>
     <use xlink:href="#DejaVuSans-2e" transform="translate(4610.892578 0)"/>
    </g>
   </g>
  </g>
 </g>
 <defs>
  <clipPath id="pb2aa3a8ecf">
   <rect x="7.2" y="7.2" width="842.4" height="554.4"/>
  </clipPath>
 </defs>
</svg>
